<svg width="24" height="24" viewBox="0 0 24 24" fill="none" xmlns="http://www.w3.org/2000/svg">
<path fill-rule="evenodd" clip-rule="evenodd" d="M13.4995 3.74951H10.4995C10.0853 3.74951 9.74951 4.0853 9.74951 4.49951V5.99951H14.2495V4.49951C14.2495 4.0853 13.9137 3.74951 13.4995 3.74951ZM7.49951 4.49951V5.99951H5.99951C3.51423 5.99951 1.49951 8.01423 1.49951 10.4995V16.4995C1.49951 18.9848 3.51423 20.9995 5.99951 20.9995H17.9995C20.4848 20.9995 22.4995 18.9848 22.4995 16.4995V10.4995C22.4995 8.01423 20.4848 5.99951 17.9995 5.99951H16.4995V4.49951C16.4995 2.84266 15.1564 1.49951 13.4995 1.49951H10.4995C8.84266 1.49951 7.49951 2.84266 7.49951 4.49951ZM14.2495 8.24951H16.4995H17.9995C19.2422 8.24951 20.2495 9.25687 20.2495 10.4995V16.4995C20.2495 17.7422 19.2422 18.7495 17.9995 18.7495H5.99951C4.75687 18.7495 3.74951 17.7422 3.74951 16.4995V10.4995C3.74951 9.25687 4.75687 8.24951 5.99951 8.24951H7.49951H9.74951H14.2495ZM7.12451 10.4995C6.50319 10.4995 5.99951 11.0032 5.99951 11.6245C5.99951 12.2458 6.50319 12.7495 7.12451 12.7495H16.8745C17.4958 12.7495 17.9995 12.2458 17.9995 11.6245C17.9995 11.0032 17.4958 10.4995 16.8745 10.4995H7.12451Z" fill="#262626"/>
</svg>
