<svg width="24" height="24" viewBox="0 0 24 24" fill="none" xmlns="http://www.w3.org/2000/svg">
<path fill-rule="evenodd" clip-rule="evenodd" d="M9.75049 3.00049H14.2505C15.0789 3.00049 15.7505 3.67206 15.7505 4.50049V9.00049C15.7505 9.82892 15.0789 10.5005 14.2505 10.5005H9.75049C8.92206 10.5005 8.25049 9.82892 8.25049 9.00049V4.50049C8.25049 3.67206 8.92206 3.00049 9.75049 3.00049ZM6.00049 4.50049C6.00049 2.42942 7.67942 0.750488 9.75049 0.750488H14.2505C16.3216 0.750488 18.0005 2.42942 18.0005 4.50049V9.00049C18.0005 9.53382 17.8892 10.0411 17.6885 10.5005H19.5005C21.5716 10.5005 23.2505 12.1794 23.2505 14.2505V18.7505C23.2505 20.8216 21.5716 22.5005 19.5005 22.5005H15.0005H14.6255H9.37549H9.00049H4.50049C2.42942 22.5005 0.750488 20.8216 0.750488 18.7505V14.2505C0.750488 12.1794 2.42942 10.5005 4.50049 10.5005H6.31252C6.11183 10.0411 6.00049 9.53382 6.00049 9.00049V4.50049ZM9.37549 12.7505C10.2039 12.7505 10.8755 13.4221 10.8755 14.2505V18.7505C10.8755 19.5789 10.2039 20.2505 9.37549 20.2505H4.50049C3.67206 20.2505 3.00049 19.5789 3.00049 18.7505V14.2505C3.00049 13.4221 3.67206 12.7505 4.50049 12.7505H9.37549ZM14.6255 20.2505C13.7971 20.2505 13.1255 19.5789 13.1255 18.7505V14.2505C13.1255 13.4221 13.7971 12.7505 14.6255 12.7505H19.5005C20.3289 12.7505 21.0005 13.4221 21.0005 14.2505V18.7505C21.0005 19.5789 20.3289 20.2505 19.5005 20.2505H14.6255Z" fill="#262626"/>
</svg>
