<svg width="22" height="22" viewBox="0 0 22 22" fill="none" xmlns="http://www.w3.org/2000/svg">
<path fill-rule="evenodd" clip-rule="evenodd" d="M11.7989 12.7842L12.8657 12.9818C13.1509 13.0346 13.4463 13.0625 13.75 13.0625C16.4079 13.0625 18.5625 10.9079 18.5625 8.25C18.5625 8.08816 18.5487 7.92568 18.5251 7.76667L16.6134 9.67838C16.2074 10.0844 15.6567 10.3125 15.0825 10.3125C13.2075 10.3125 11.6875 8.79249 11.6875 6.91746C11.6875 6.34326 11.9156 5.79258 12.3216 5.38657L14.2333 3.47486C14.0743 3.45126 13.9118 3.4375 13.75 3.4375C11.0921 3.4375 8.9375 5.59213 8.9375 8.25C8.9375 8.55373 8.96538 8.84911 9.01819 9.13425L9.21575 10.2011L3.97249 15.4443C3.62994 15.7869 3.4375 16.2515 3.4375 16.7359C3.4375 17.7447 4.25529 18.5625 5.26409 18.5625C5.74853 18.5625 6.21313 18.3701 6.55568 18.0275L11.7989 12.7842ZM17.0471 3.45219C17.2473 2.94724 17.0468 2.33595 16.5192 2.07218C16.5064 2.06577 16.4944 2.05945 16.4817 2.05277C16.3224 1.96894 15.1444 1.375 13.75 1.375C9.95304 1.375 6.875 4.45304 6.875 8.25C6.875 8.68032 6.91453 9.10141 6.99017 9.50982L2.51409 13.9859C1.78474 14.7153 1.375 15.7045 1.375 16.7359C1.375 18.8838 3.1162 20.625 5.26409 20.625C6.29554 20.625 7.28474 20.2153 8.01408 19.4859L12.4902 15.0098C12.8986 15.0855 13.3197 15.125 13.75 15.125C17.547 15.125 20.625 12.047 20.625 8.25C20.625 6.85549 20.031 5.67749 19.9473 5.51829C19.9406 5.50562 19.9343 5.4936 19.9279 5.48079C19.6641 4.9532 19.0528 4.75268 18.5478 4.95287C18.4144 5.00576 18.2884 5.08662 18.1782 5.1968L15.155 8.21998C15.1358 8.2392 15.1097 8.25 15.0825 8.25C14.3466 8.25 13.75 7.6534 13.75 6.91746C13.75 6.89027 13.7608 6.8642 13.78 6.84498L16.8031 3.82185C16.9133 3.71165 16.9943 3.58561 17.0471 3.45219Z" fill="#0066ff"/>
</svg>
