<svg width="22" height="22" viewBox="0 0 22 22" fill="none" xmlns="http://www.w3.org/2000/svg">
<path fill-rule="evenodd" clip-rule="evenodd" d="M10.2721 4.93402C8.53752 3.89325 6.40044 3.77772 4.56375 4.62543C4.29628 4.74888 4.125 5.01657 4.125 5.31115V12.919C6.61812 11.9163 9.44166 12.1367 11.7523 13.5231L12.2258 13.8072C13.8455 14.779 15.8495 14.856 17.539 14.0112C17.7449 13.9083 17.875 13.6978 17.875 13.4676V5.74976C15.4401 6.64621 12.7153 6.3999 10.4694 5.05239L10.2721 4.93402ZM18.4614 15.856C16.1412 17.0161 13.3891 16.9104 11.1646 15.5758L10.6912 15.2917C8.89298 14.2128 6.68608 14.063 4.75862 14.8891L4.125 15.1606V19.6369C4.125 20.2064 3.66329 20.6681 3.09375 20.6681C2.52421 20.6681 2.0625 20.2064 2.0625 19.6369V5.31115C2.0625 4.21209 2.70154 3.21334 3.69944 2.75277C6.15566 1.61912 9.01358 1.77362 11.3333 3.16544L11.5306 3.28381C13.3886 4.39864 15.6778 4.52239 17.6452 3.61436L18.4741 3.23177C18.7934 3.0844 19.1658 3.1099 19.462 3.29944C19.7583 3.48899 19.9375 3.81642 19.9375 4.1681V13.4676C19.9375 14.4791 19.3661 15.4037 18.4614 15.856Z" fill="#5282FF"/>
</svg>
