<svg width="24" height="24" viewBox="0 0 24 24" fill="none" xmlns="http://www.w3.org/2000/svg">
<path fill-rule="evenodd" clip-rule="evenodd" d="M15.7495 8.99951V7.49951C15.7495 5.42844 14.0706 3.74951 11.9995 3.74951C9.92844 3.74951 8.24951 5.42844 8.24951 7.49951V8.99951H15.7495ZM5.99951 7.49951V8.99951C3.51423 8.99951 1.49951 11.0142 1.49951 13.4995V17.9995C1.49951 20.4848 3.51423 22.4995 5.99951 22.4995H17.9995C20.4848 22.4995 22.4995 20.4848 22.4995 17.9995V13.4995C22.4995 11.0142 20.4848 8.99951 17.9995 8.99951V7.49951C17.9995 4.1858 15.3132 1.49951 11.9995 1.49951C8.6858 1.49951 5.99951 4.1858 5.99951 7.49951ZM15.7495 11.2495H17.9995C19.2421 11.2495 20.2495 12.2569 20.2495 13.4995V17.9995C20.2495 19.2421 19.2421 20.2495 17.9995 20.2495H5.99951C4.75687 20.2495 3.74951 19.2421 3.74951 17.9995V13.4995C3.74951 12.2569 4.75687 11.2495 5.99951 11.2495H8.24951H15.7495ZM13.1245 14.2495C13.1245 13.6282 12.6208 13.1245 11.9995 13.1245C11.3782 13.1245 10.8745 13.6282 10.8745 14.2495V17.2495C10.8745 17.8708 11.3782 18.3745 11.9995 18.3745C12.6208 18.3745 13.1245 17.8708 13.1245 17.2495V14.2495Z" fill="#262626"/>
</svg>
