<!DOCTYPE svg PUBLIC "-//W3C//DTD SVG 1.1//EN" "http://www.w3.org/Graphics/SVG/1.1/DTD/svg11.dtd">
<svg fill="#000000" height="800px" width="800px" version="1.1" id="Capa_1" xmlns="http://www.w3.org/2000/svg" xmlns:xlink="http://www.w3.org/1999/xlink" 
	 viewBox="0 0 321 321" xml:space="preserve">
<path d="M267.233,112.841c-2.507-19.117-11.573-36.755-26.066-50.399c-16.668-15.691-38.676-24.333-61.968-24.333
	c-28.087,0-54.066,12.591-70.81,33.998c-3.555-0.572-7.165-0.86-10.794-0.86c-15.583,0-30.671,5.394-42.484,15.187
	c-10.322,8.557-17.6,19.983-20.863,32.604C13.273,129.577,0,150.468,0,173.637c0,33.938,28.562,61.548,63.668,61.548h70.398v29.02
	c0,10.305,8.233,18.688,18.354,18.688h83.752c10.12,0,18.354-8.383,18.354-18.688v-29.02h2.809c35.105,0,63.666-27.61,63.666-61.548
	C321,143.087,297.608,117.477,267.233,112.841z M219.979,188.543h-51.363v-7.325c0-14.688,11.52-26.639,25.68-26.639
	c14.162,0,25.684,11.95,25.684,26.639V188.543z M234.525,262.892h-80.459v-54.349h80.459V262.892z M257.334,215.185h-2.809v-7.955
	c0-8.975-6.248-16.487-14.547-18.277v-7.735c0-25.717-20.493-46.639-45.684-46.639c-25.188,0-45.68,20.922-45.68,46.639v7.734
	c-8.3,1.79-14.549,9.302-14.549,18.277v7.955H63.668C39.59,215.185,20,196.546,20,173.637c0-16.748,10.482-31.78,26.706-38.297
	c3.248-1.305,5.577-4.213,6.142-7.668c3.392-20.766,22.629-36.426,44.748-36.426c4.238,0,8.432,0.556,12.464,1.651
	c4.165,1.13,8.583-0.535,10.963-4.134c12.695-19.195,34.443-30.655,58.177-30.655c37.106,0,67.938,28.805,68.729,64.211
	c0.12,5.394,4.498,9.72,9.893,9.775C281.63,132.343,301,150.979,301,173.637C301,196.546,281.411,215.185,257.334,215.185z"/>
</svg>
