<svg width="24" height="24" viewBox="0 0 24 24" fill="none" xmlns="http://www.w3.org/2000/svg">
<path fill-rule="evenodd" clip-rule="evenodd" d="M5.99951 5.25049H17.9995C19.2422 5.25049 20.2495 6.25785 20.2495 7.50049V10.8755H3.74951V7.50049C3.74951 6.25785 4.75687 5.25049 5.99951 5.25049ZM3.74951 13.1255V16.5005C3.74951 17.7431 4.75687 18.7505 5.99951 18.7505H17.9995C19.2422 18.7505 20.2495 17.7431 20.2495 16.5005V13.1255H3.74951ZM1.49951 7.50049C1.49951 5.01521 3.51423 3.00049 5.99951 3.00049H17.9995C20.4848 3.00049 22.4995 5.01521 22.4995 7.50049V16.5005C22.4995 18.9858 20.4848 21.0005 17.9995 21.0005H5.99951C3.51423 21.0005 1.49951 18.9858 1.49951 16.5005V7.50049ZM5.62451 8.25049C5.62451 7.62917 6.12819 7.12549 6.74951 7.12549H10.4995C11.1208 7.12549 11.6245 7.62917 11.6245 8.25049C11.6245 8.87181 11.1208 9.37549 10.4995 9.37549H6.74951C6.12819 9.37549 5.62451 8.87181 5.62451 8.25049ZM6.74951 14.6255C6.12819 14.6255 5.62451 15.1292 5.62451 15.7505C5.62451 16.3718 6.12819 16.8755 6.74951 16.8755H10.4995C11.1208 16.8755 11.6245 16.3718 11.6245 15.7505C11.6245 15.1292 11.1208 14.6255 10.4995 14.6255H6.74951Z" fill="#262626"/>
</svg>
