<svg width="24" height="24" viewBox="0 0 24 24" fill="none" xmlns="http://www.w3.org/2000/svg">
<path fill-rule="evenodd" clip-rule="evenodd" d="M6.75 4.5C5.50736 4.5 4.5 5.50736 4.5 6.75V9.375C4.5 9.99632 3.99632 10.5 3.375 10.5C2.75368 10.5 2.25 9.99632 2.25 9.375V6.75C2.25 4.26472 4.26472 2.25 6.75 2.25H9.375C9.99632 2.25 10.5 2.75368 10.5 3.375C10.5 3.99632 9.99632 4.5 9.375 4.5H6.75ZM13.5 3.375C13.5 2.75368 14.0037 2.25 14.625 2.25H17.25C19.7353 2.25 21.75 4.26472 21.75 6.75V9.375C21.75 9.99632 21.2463 10.5 20.625 10.5C20.0037 10.5 19.5 9.99632 19.5 9.375V6.75C19.5 5.50736 18.4926 4.5 17.25 4.5H14.625C14.0037 4.5 13.5 3.99632 13.5 3.375ZM3.375 13.5C3.99632 13.5 4.5 14.0037 4.5 14.625V17.25C4.5 18.4926 5.50736 19.5 6.75 19.5H9.375C9.99632 19.5 10.5 20.0037 10.5 20.625C10.5 21.2463 9.99632 21.75 9.375 21.75H6.75C4.26472 21.75 2.25 19.7353 2.25 17.25V14.625C2.25 14.0037 2.75368 13.5 3.375 13.5ZM20.625 13.5C21.2463 13.5 21.75 14.0037 21.75 14.625V17.25C21.75 19.7353 19.7353 21.75 17.25 21.75H14.625C14.0037 21.75 13.5 21.2463 13.5 20.625C13.5 20.0037 14.0037 19.5 14.625 19.5H17.25C18.4926 19.5 19.5 18.4926 19.5 17.25V14.625C19.5 14.0037 20.0037 13.5 20.625 13.5Z" fill="#262626"/>
</svg>
