<svg width="22" height="22" viewBox="0 0 22 22" fill="none" xmlns="http://www.w3.org/2000/svg">
<path fill-rule="evenodd" clip-rule="evenodd" d="M10.7738 8.25L11.8188 5.46331L12.8363 2.75H7.5625C7.16019 2.75 6.79841 2.99494 6.64899 3.36848L3.45491 11.3537C3.44341 11.3824 3.4375 11.4131 3.4375 11.4441C3.4375 11.5785 3.54648 11.6875 3.68092 11.6875H7.5625H10.5071L9.50082 14.4548L8.01337 18.5453C7.88882 18.8879 8.14247 19.25 8.50693 19.25C8.65174 19.25 8.79012 19.1902 8.88937 19.0848L18.4541 8.92225C18.5237 8.84826 18.5625 8.75048 18.5625 8.64888C18.5625 8.42858 18.3839 8.25 18.1636 8.25H13.75H10.7738ZM12.9157 2.53821L12.9157 2.53839L12.9157 2.53821ZM14.5234 4.125L14.8469 3.2624C15.3141 2.01652 14.3931 0.6875 13.0625 0.6875H7.5625C6.31682 0.6875 5.19664 1.4459 4.73401 2.60248L1.53993 10.5877C1.43098 10.8601 1.375 11.1507 1.375 11.4441C1.375 12.7176 2.4074 13.75 3.68092 13.75H5.36787H7.5625L6.8125 15.8125L6.07505 17.8405C5.46136 19.5281 6.71117 21.3125 8.50693 21.3125C9.22044 21.3125 9.90227 21.0179 10.3913 20.4983L19.956 10.3358C20.3857 9.87924 20.625 9.27587 20.625 8.64888C20.625 7.2895 19.523 6.1875 18.1636 6.1875H15.9528H13.75L14.5234 4.125Z" fill="#0066ff"/>
</svg>
