<svg width="24" height="24" viewBox="0 0 24 24" fill="none" xmlns="http://www.w3.org/2000/svg">
<path fill-rule="evenodd" clip-rule="evenodd" d="M1.82902 16.83C1.38968 17.2693 1.38968 17.9816 1.82902 18.421C2.26836 18.8603 2.98067 18.8603 3.42001 18.421L9.04501 12.796C9.48435 12.3566 9.48435 11.6443 9.04501 11.205L3.42001 5.57999C2.98067 5.14065 2.26836 5.14065 1.82902 5.57999C1.38968 6.01933 1.38968 6.73164 1.82902 7.17098L6.65852 12.0005L1.82902 16.83ZM21.3745 18.7505C21.9958 18.7505 22.4995 18.2468 22.4995 17.6255C22.4995 17.0042 21.9958 16.5005 21.3745 16.5005H11.6245C11.0032 16.5005 10.4995 17.0042 10.4995 17.6255C10.4995 18.2468 11.0032 18.7505 11.6245 18.7505H21.3745Z" fill="#262626"/>
</svg>
